<svg width="1440" height="1310" viewBox="0 0 1440 1310" fill="none" xmlns="http://www.w3.org/2000/svg">
<path opacity="0.2" d="M539.348 474.412C750.404 544.943 801.721 671.102 879.733 601.213C957.745 531.324 1089.31 323.62 1285.23 268.595C1481.15 213.571 1555.34 320.646 1555.34 320.646C1555.34 320.646 1298.76 233.695 1167.02 382.626C1035.52 531.734 1041.08 707.526 938.054 790.658C862.14 851.747 539.348 474.412 539.348 474.412Z" fill="url(#paint0_linear_171_2448)"/>
<path d="M1201.39 350.807C1217.29 326.172 1234.35 302.214 1252.63 279.35C1097.99 337.835 986.36 487.831 911.342 569.377C892.331 640.535 884.977 714.431 881.84 788.129C905.921 798.797 925.535 800.785 938.439 790.389C1041.49 707.465 1035.69 531.496 1167.41 382.357C1177.75 370.429 1189.17 360.041 1201.39 350.807Z" fill="url(#paint1_linear_171_2448)"/>
<path opacity="0.2" d="M51.2337 857.22C94.7523 883.063 139.163 909.199 188.323 921.473C237.483 933.747 292.985 930.014 333.751 899.798C350.211 887.604 362.965 870.438 376.38 854.873C399.575 827.887 423.549 783.167 463.913 781.88C499.406 780.675 534.129 805.906 565.118 820.225C577.651 826.017 615.157 842.771 632.06 849.404C632.06 849.404 414.998 693.576 318.764 696.103C222.53 698.631 51.2337 857.22 51.2337 857.22Z" fill="url(#paint2_linear_171_2448)"/>
<path d="M-7.5572 326.507C-8.50364 392.027 40.7961 441.216 74.1465 497.429C120.759 575.885 169.479 628.343 232.854 611.773C300.739 594.112 359.889 472.665 455.282 461.558C523.954 453.546 589.697 493.303 639.998 540.647C690.3 587.99 730.783 645.061 782.532 690.704C829.42 732.183 896.999 764.24 953.554 737.425C994.044 718.288 1016.51 674.853 1032.18 632.845C1072.88 524.521 1092.27 399.814 1178.78 322.728C1237.89 270.064 1323.58 249.35 1400.19 269.248C1476.81 289.145 1541.69 348.983 1567.58 423.704C1580.53 461.064 1582.4 506.851 1555.44 535.666C1522.42 570.894 1463.96 563.178 1420.67 541.759C1377.38 520.34 1278.7 573.961 1232.48 559.98C1157.63 537.699 1094.03 490.833 1062.19 564.308C1021.84 657.722 1019.33 732.812 969.088 795.206C841.403 954.364 662.454 869.755 525.64 794.423C433.885 743.857 338.6 688.081 233.948 688.243C87.2327 688.244 -51.215 735.635 -160.446 605.499C-217.854 537.34 -245.059 447.954 -255.627 359.085" fill="url(#paint3_linear_171_2448)"/>
<path d="M677.758 754.778C654.709 729.523 631.453 704.298 607.28 680.057C586.329 658.95 568.159 635.097 548.155 613.213C538.78 602.922 528.843 593.138 517.782 584.369C507.198 575.954 495.483 567.069 482.31 564.131C467.175 560.846 451.842 566.293 437.695 571.14C422.955 576.287 408.215 581.435 393.928 588.213C343.685 611.761 304.047 648.179 271.716 690.947C361.686 702.081 445.054 750.487 525.701 794.838C611.202 841.869 713.177 892.624 808.706 885.318C761.294 846.039 719.287 800.232 677.758 754.778Z" fill="url(#paint4_linear_171_2448)"/>
<path d="M250.268 613.236C383.286 586.6 442.457 521.402 568.577 551.612C694.905 581.791 805.551 793.444 805.551 793.444C805.551 793.444 584.176 642.923 480.563 591.135C376.95 539.348 251.226 672.956 251.226 672.956L250.268 613.236Z" fill="url(#paint5_linear_171_2448)"/>
<path d="M333.283 688.017C373.765 563.805 476.104 558.042 558.55 683.64C672.227 856.849 759.741 895.941 825.623 881.972C825.623 881.972 654.767 709.772 555.078 632.782C455.388 555.792 398.146 588.015 363.215 601.661C328.138 615.754 333.283 688.017 333.283 688.017Z" fill="url(#paint6_linear_171_2448)"/>
<path d="M448.998 587.303C277.878 564.371 331.851 990.508 126.465 1054.78C-78.9206 1119.06 102.586 751.995 102.586 751.995C102.586 751.995 251.934 646.105 319.741 604.893C387.786 563.859 448.998 587.303 448.998 587.303Z" fill="url(#paint7_linear_171_2448)"/>
<path d="M1090.91 511.459C1172.12 529.404 1222.89 251.898 1428.12 173.635C1633.35 95.3721 1626.8 492.656 1626.8 492.656L1439.84 486.073C1439.84 486.073 1364.83 420.936 1280 456.169C1231.38 476.294 1234.92 465.793 1202.18 495.675C1152.04 541.496 1090.91 511.459 1090.91 511.459Z" fill="url(#paint8_linear_171_2448)"/>
<path d="M-155.849 810.727C-53.3801 910.869 75.7922 920.038 169.505 834.246C216.627 790.993 254.088 726.876 297.037 674.049C339.986 621.223 391.833 578.333 449.237 587.48C574.893 607.357 635.732 782.208 727.436 854.008C815.087 922.798 902.665 865.932 917.244 767.62C924.39 719.653 919.117 670.971 924.539 622.833C929.134 582.035 938.655 527.137 982.967 512.319C1005.84 504.698 1031.04 507.135 1054.67 511.925C1078.31 516.715 1101.84 523.644 1125.97 524.541C1160.76 525.775 1191.69 515.266 1216.69 491.836C1234.4 475.211 1252.41 482.106 1270.41 496.218C1307.62 525.328 1325.98 572.077 1361.77 601.61C1443.71 669.119 1543.98 653.684 1605.09 564.213L1538.85 410.325C1493.93 357.729 1403.82 309.681 1344.31 345.211C1283.82 381.31 1251.18 453.63 1196.02 494.248C1115.05 554.172 1048.12 476.168 964.575 485.527C924.494 490.168 890.722 523.173 869.063 554.814C840.234 596.854 816.641 647.036 770.939 669.702C716.139 696.894 649.793 674.632 596.157 644.975C542.521 615.319 489.444 577.938 428.235 574.659C367.235 571.35 310.107 602.919 249.822 613.09C185.797 623.812 117.969 608.774 64.3602 572.109C10.7513 535.443 -27.9235 477.68 -41.3151 414.276L-155.849 810.727Z" fill="url(#paint9_linear_171_2448)"/>
<path d="M993.973 509.208C940.716 516.644 937.327 561.297 867.474 719.562C824.784 815.866 766.079 807.973 683.205 731.261C607.998 661.908 524.333 607.177 466.541 591.082C580.64 623.278 640.024 785.395 727.198 853.831C814.848 922.621 902.426 865.755 917.005 767.443C927.521 696.265 910.695 622.541 942.109 554.86C956.819 523.607 981.744 511.225 993.973 509.208Z" fill="url(#paint10_linear_171_2448)"/>
<defs>
<linearGradient id="paint0_linear_171_2448" x1="1225.18" y1="50.9875" x2="907.401" y2="670.504" gradientUnits="userSpaceOnUse">
<stop stop-color="#87E98F" stop-opacity="0"/>
<stop offset="0.0973232" stop-color="#39EDCB" stop-opacity="0.097372"/>
<stop offset="0.2432" stop-color="#3FD8CE" stop-opacity="0.2433"/>
<stop offset="0.4196" stop-color="#4AB7D3" stop-opacity="0.4198"/>
<stop offset="0.6199" stop-color="#5888DA" stop-opacity="0.6202"/>
<stop offset="0.8373" stop-color="#694DE3" stop-opacity="0.8377"/>
<stop offset="0.9995" stop-color="#781CEA"/>
</linearGradient>
<linearGradient id="paint1_linear_171_2448" x1="967.377" y1="390.368" x2="1105.9" y2="589.643" gradientUnits="userSpaceOnUse">
<stop stop-color="#87E98F"/>
<stop offset="0.5155" stop-color="#87E98F" stop-opacity="0"/>
</linearGradient>
<linearGradient id="paint2_linear_171_2448" x1="172.958" y1="1052.1" x2="433.262" y2="745.308" gradientUnits="userSpaceOnUse">
<stop stop-color="#37F4CA" stop-opacity="0"/>
<stop offset="0.0973232" stop-color="#39EDCB" stop-opacity="0.097372"/>
<stop offset="0.2432" stop-color="#3FD8CE" stop-opacity="0.2433"/>
<stop offset="0.4196" stop-color="#4AB7D3" stop-opacity="0.4198"/>
<stop offset="0.6199" stop-color="#5888DA" stop-opacity="0.6202"/>
<stop offset="0.8373" stop-color="#694DE3" stop-opacity="0.8377"/>
<stop offset="0.9995" stop-color="#781CEA"/>
</linearGradient>
<linearGradient id="paint3_linear_171_2448" x1="888.265" y1="-13.8581" x2="440.938" y2="858.225" gradientUnits="userSpaceOnUse">
<stop stop-color="#C53672"/>
<stop offset="0.0973232" stop-color="#E9307E"/>
<stop offset="0.2432" stop-color="#77111A"/>
<stop offset="0.4196" stop-color="#77111A"/>
<stop offset="0.6199" stop-color="#C53672"/>
<stop offset="0.8373" stop-color="#C53672"/>
<stop offset="0.9995" stop-color="#77111A"/>
</linearGradient>
<linearGradient id="paint4_linear_171_2448" x1="496.955" y1="857.71" x2="574.272" y2="733.367" gradientUnits="userSpaceOnUse">
<stop stop-color="#87E98F"/>
<stop offset="0.9299" stop-color="#87E98F" stop-opacity="0"/>
</linearGradient>
<linearGradient id="paint5_linear_171_2448" x1="400.74" y1="607.6" x2="810.807" y2="772.576" gradientUnits="userSpaceOnUse">
<stop stop-color="#87E98F"/>
<stop offset="1" stop-color="#87E98F" stop-opacity="0"/>
</linearGradient>
<linearGradient id="paint6_linear_171_2448" x1="714.84" y1="952.9" x2="395.617" y2="556.933" gradientUnits="userSpaceOnUse">
<stop stop-color="#87E98F"/>
<stop offset="1" stop-color="#87E98F" stop-opacity="0"/>
</linearGradient>
<linearGradient id="paint7_linear_171_2448" x1="44.9086" y1="840.912" x2="1697.11" y2="679.339" gradientUnits="userSpaceOnUse">
<stop stop-color="#49A078"/>
<stop offset="0.296875" stop-color="#CDE7B0"/>
<stop offset="0.6981" stop-color="#5AEEB1"/>
<stop offset="1" stop-color="#7623E9"/>
</linearGradient>
<linearGradient id="paint8_linear_171_2448" x1="-424.982" y1="83.8345" x2="1554.7" y2="370.627" gradientUnits="userSpaceOnUse">
<stop stop-color="#FF3D71"/>
<stop offset="0.3314" stop-color="#FFDD35"/>
<stop offset="0.6981" stop-color="#C53672"/>
<stop offset="1" stop-color="#FF872E"/>
</linearGradient>
<linearGradient id="paint9_linear_171_2448" x1="-189.444" y1="459.8" x2="1372.68" y2="727.469" gradientUnits="userSpaceOnUse">
<stop stop-color="#FF3D71"/>
<stop offset="0.3314" stop-color="#FF8D29"/>
<stop offset="0.867046" stop-color="#87E98F"/>
<stop offset="1" stop-color="#49A078"/>
</linearGradient>
<linearGradient id="paint10_linear_171_2448" x1="39.0624" y1="781.131" x2="1691.26" y2="619.558" gradientUnits="userSpaceOnUse">
<stop stop-color="#FF3D71"/>
<stop offset="0.3314" stop-color="#FFDD35"/>
<stop offset="0.6981" stop-color="#5AEEB1"/>
<stop offset="1" stop-color="#7623E9"/>
</linearGradient>
</defs>
</svg>
