<svg width="46" height="46" viewBox="0 0 46 46" fill="none" xmlns="http://www.w3.org/2000/svg">
<path d="M5.5 0.5H40.5C41.8261 0.5 43.0979 1.02678 44.0355 1.96447C44.9732 2.90215 45.5 4.17392 45.5 5.5V40.5C45.5 41.8261 44.9732 43.0979 44.0355 44.0355C43.0979 44.9732 41.8261 45.5 40.5 45.5H5.5C4.17392 45.5 2.90215 44.9732 1.96447 44.0355C1.02678 43.0979 0.5 41.8261 0.5 40.5V5.5C0.5 4.17392 1.02678 2.90215 1.96447 1.96447C2.90215 1.02678 4.17392 0.5 5.5 0.5ZM38 5.5H31.75C29.4294 5.5 27.2038 6.42187 25.5628 8.06282C23.9219 9.70376 23 11.9294 23 14.25V20.5H18V28H23V45.5H30.5V28H38V20.5H30.5V15.5C30.5 14.837 30.7634 14.2011 31.2322 13.7322C31.7011 13.2634 32.337 13 33 13H38V5.5Z" fill="#C53672"/>
</svg>
