<svg width="50" height="50" viewBox="0 0 50 50" fill="none" xmlns="http://www.w3.org/2000/svg">
<path d="M32.4535 15.4308C34.8879 15.3122 35.2624 19.301 32.5908 18.9514C30.3748 18.889 30.0939 15.4933 32.4535 15.4308Z" fill="white"/>
<path d="M40.4309 24.9314C40.6244 10.6554 34.9066 8.80775 21.8666 9.6005C12.8841 8.90762 9.35725 15.7116 9.33231 23.7578C8.84544 31.6355 11.2736 41.5918 21.0801 40.7553C33.3211 40.5369 40.999 39.2946 40.4309 24.9314ZM19.0264 0.362068C33.0464 -0.942551 49.2761 1.06744 49.4696 18.6143C49.9627 26.6916 50.2249 35.3496 46.2674 42.6779C42.0539 49.8439 35.0314 49.5443 27.7281 49.7129C21.3048 49.9688 14.6819 50.5244 8.48962 48.4207C2.17875 46.236 0.462137 41.4732 0.599468 35.2434C0.380993 29.8814 0.162512 24.5319 0.256149 19.1636C0.568255 6.44194 6.12381 0.0686865 19.0264 0.362068Z" fill="#C53672"/>
<path d="M21.8666 9.60052C34.9066 8.80777 40.6181 10.6555 40.4309 24.9314C40.9989 39.2946 33.321 40.5306 21.0863 40.7553C11.2736 41.5918 8.85163 31.6293 9.3385 23.7578C9.35725 15.7116 12.8841 8.90764 21.8666 9.60052ZM37.6843 25.3808C37.6843 16.5419 36.5982 11.8602 26.5608 12.3096C23.5769 12.603 20.0876 12.1598 17.0913 13.1773C11.0738 16.1174 11.9041 24.201 12.4596 29.8065C13.0027 38.864 20.5121 38.5955 27.5408 37.5843C36.1737 37.1286 37.7655 33.402 37.6843 25.3808Z" fill="white"/>
<path d="M25.9492 19.5818C19.5947 19.2573 17.6347 29.7254 24.6072 30.0063C31.1615 29.8503 32.1665 21.4483 25.9492 19.5818ZM24.6197 17.1786C35.5934 16.4358 34.9193 32.653 24.5697 32.5406C14.7632 32.241 15.6809 18.0525 24.6197 17.1786Z" fill="white"/>
<path d="M24.6133 30.0064C17.6408 29.7193 19.5946 19.2511 25.9554 19.5819C32.1664 21.4483 31.1614 29.8503 24.6133 30.0064Z" fill="#C53672"/>
<path d="M26.5608 12.3097C36.5983 11.854 37.6906 16.5418 37.6844 25.3808C37.7593 33.402 36.1738 37.1286 27.5408 37.5843C20.5121 38.5955 13.0028 38.8639 12.4597 29.8065C11.9041 24.1948 11.0801 16.1174 17.0914 13.1773C20.0876 12.1599 23.5771 12.603 26.5608 12.3097ZM24.5758 32.5406C34.9191 32.653 35.5995 16.4357 24.6258 17.1785C15.6806 18.0525 14.7631 32.241 24.5758 32.5406ZM32.5908 18.9513C35.2624 19.3009 34.8879 15.3184 32.4534 15.4307C30.0939 15.4932 30.3748 18.8889 32.5908 18.9513Z" fill="#C53672"/>
</svg>
