<svg width="46" height="46" viewBox="0 0 46 46" fill="none" xmlns="http://www.w3.org/2000/svg">
<path d="M5.5 0.5H40.5C41.8261 0.5 43.0979 1.02678 44.0355 1.96447C44.9732 2.90215 45.5 4.17392 45.5 5.5V40.5C45.5 41.8261 44.9732 43.0979 44.0355 44.0355C43.0979 44.9732 41.8261 45.5 40.5 45.5H5.5C4.17392 45.5 2.90215 44.9732 1.96447 44.0355C1.02678 43.0979 0.5 41.8261 0.5 40.5V5.5C0.5 4.17392 1.02678 2.90215 1.96447 1.96447C2.90215 1.02678 4.17392 0.5 5.5 0.5ZM37.275 16.325C38.5768 15.3796 39.6738 14.1805 40.5 12.8C39.3672 13.3444 38.1497 13.691 36.9 13.825C38.2066 12.9354 39.1892 11.6458 39.7 10.15C38.3949 10.9053 36.9768 11.4455 35.5 11.75C34.4736 10.6521 33.1125 9.92517 31.6292 9.68279C30.146 9.44041 28.6242 9.69625 27.3018 10.4103C25.9793 11.1244 24.9307 12.2565 24.3197 13.6296C23.7088 15.0027 23.57 16.5396 23.925 18C21.2563 17.8467 18.6494 17.1356 16.2725 15.9127C13.8955 14.6898 11.8013 12.9821 10.125 10.9C9.35862 12.388 9.13655 14.097 9.49722 15.7314C9.85788 17.3659 10.7786 18.8227 12.1 19.85C11.1038 19.7716 10.134 19.4909 9.25 19.025C9.21088 20.5702 9.70723 22.0814 10.6549 23.3025C11.6027 24.5236 12.9434 25.3794 14.45 25.725C13.507 25.8878 12.543 25.8878 11.6 25.725C11.9966 27.0643 12.8034 28.2455 13.9067 29.1021C15.01 29.9587 16.3542 30.4476 17.75 30.5C14.9752 32.6346 11.4775 33.6032 8 33.2C11.1368 35.3624 14.8937 36.4421 18.7 36.275C29.725 35.775 37.1 28 37.275 16.325Z" fill="#C53672"/>
</svg>
